<?xml version="1.0" encoding="UTF-8"?>
<!DOCTYPE svg PUBLIC "-//W3C//DTD SVG 1.1//EN" "http://www.w3.org/Graphics/SVG/1.1/DTD/svg11.dtd">
<svg xmlns="http://www.w3.org/2000/svg" version="1.1" width="167px" height="167px" style="shape-rendering:geometricPrecision; text-rendering:geometricPrecision; image-rendering:optimizeQuality; fill-rule:evenodd; clip-rule:evenodd" xmlns:xlink="http://www.w3.org/1999/xlink">
<g><path style="opacity:0.991" fill="#fefdfd" d="M 125.5,6.5 C 124.378,20.4435 121.711,34.1101 117.5,47.5C 103.702,61.7985 89.7019,75.9652 75.5,90C 74.5,90.6667 73.5,90.6667 72.5,90C 67.1667,84.6667 61.8333,79.3333 56.5,74C 48.2541,72.5723 45.4208,75.739 48,83.5C 55.3692,90.7018 62.5359,98.0351 69.5,105.5C 65.9013,109.076 61.568,111.41 56.5,112.5C 43.3977,103.27 38.231,90.6031 41,74.5C 47.2552,56.1216 60.0885,47.2882 79.5,48C 88.2095,49.6041 95.7095,53.4375 102,59.5C 104.631,58.0367 106.798,56.0367 108.5,53.5C 94.7824,39.4868 78.4491,35.3201 59.5,41C 34.1488,53.5418 25.6488,73.3751 34,100.5C 36.6422,106.822 40.4755,112.155 45.5,116.5C 41.5213,119.522 36.8546,121.355 31.5,122C 23.2185,123.41 14.8851,124.244 6.5,124.5C 6.33335,91.165 6.50002,57.8317 7,24.5C 9.61127,14.8883 15.7779,9.05495 25.5,7C 58.8317,6.50002 92.165,6.33335 125.5,6.5 Z"/></g>
<g><path style="opacity:0.996" fill="#eae9e9" d="M 148.5,10.5 C 152.407,12.9547 155.407,16.288 157.5,20.5C 147.712,84.12 112.712,127.287 52.5,150C 42.6538,152.769 32.6538,154.769 22.5,156C 21.944,156.383 21.6107,156.883 21.5,157.5C 15.7746,155.65 11.7746,151.983 9.5,146.5C 32.1461,145.339 53.4794,139.506 73.5,129C 72.5842,128.722 71.9175,128.222 71.5,127.5C 103.493,126.174 119.493,109.507 119.5,77.5C 120.319,80.3054 120.819,83.3054 121,86.5C 136.491,64.0275 144.824,39.0275 146,11.5C 146.671,10.7476 147.504,10.4142 148.5,10.5 Z"/></g>
<g><path style="opacity:0.987" fill="#e4e4e4" d="M 157.5,20.5 C 158.09,21.766 158.59,23.0993 159,24.5C 159.5,37.1623 159.667,49.8289 159.5,62.5C 141.252,110.083 108.252,142.416 60.5,159.5C 48.4954,159.667 36.4954,159.5 24.5,159C 23.2625,158.768 22.2625,158.268 21.5,157.5C 21.6107,156.883 21.944,156.383 22.5,156C 32.6538,154.769 42.6538,152.769 52.5,150C 112.712,127.287 147.712,84.12 157.5,20.5 Z"/></g>
<g><path style="opacity:1" fill="#ff9350" d="M 56.5,112.5 C 73.9375,122.049 89.4375,119.383 103,104.5C 108.495,96.0111 111.161,86.6777 111,76.5C 113.016,74.316 115.183,72.316 117.5,70.5C 118.944,72.6079 119.61,74.9412 119.5,77.5C 119.493,109.507 103.493,126.174 71.5,127.5C 61.6375,126.566 52.9708,122.9 45.5,116.5C 40.4755,112.155 36.6422,106.822 34,100.5C 25.6488,73.3751 34.1488,53.5418 59.5,41C 78.4491,35.3201 94.7824,39.4868 108.5,53.5C 106.798,56.0367 104.631,58.0367 102,59.5C 95.7095,53.4375 88.2095,49.6041 79.5,48C 60.0885,47.2882 47.2552,56.1216 41,74.5C 38.231,90.6031 43.3977,103.27 56.5,112.5 Z"/></g>
<g><path style="opacity:1" fill="#274aa5" d="M 69.5,105.5 C 62.5359,98.0351 55.3692,90.7018 48,83.5C 45.4208,75.739 48.2541,72.5723 56.5,74C 61.8333,79.3333 67.1667,84.6667 72.5,90C 73.5,90.6667 74.5,90.6667 75.5,90C 89.7019,75.9652 103.702,61.7985 117.5,47.5C 120.297,45.205 122.964,42.705 125.5,40C 132.785,39.0381 135.618,42.2048 134,49.5C 115.5,68 97,86.5 78.5,105C 75.5839,106.818 72.5839,106.984 69.5,105.5 Z"/></g>
<g><path style="opacity:0.985" fill="#dbdbdb" d="M 159.5,62.5 C 159.5,78.1667 159.5,93.8333 159.5,109.5C 152.791,119.056 145.457,128.223 137.5,137C 129.5,143.667 121.5,150.333 113.5,157C 110.421,157.973 107.421,158.806 104.5,159.5C 89.8333,159.5 75.1667,159.5 60.5,159.5C 108.252,142.416 141.252,110.083 159.5,62.5 Z"/></g>
<g><path style="opacity:1" fill="#f0eff0" d="M 125.5,6.5 C 130.511,6.33407 135.511,6.50074 140.5,7C 143.599,7.38743 146.266,8.5541 148.5,10.5C 147.504,10.4142 146.671,10.7476 146,11.5C 144.824,39.0275 136.491,64.0275 121,86.5C 120.819,83.3054 120.319,80.3054 119.5,77.5C 119.61,74.9412 118.944,72.6079 117.5,70.5C 115.183,72.316 113.016,74.316 111,76.5C 111.161,86.6777 108.495,96.0111 103,104.5C 89.4375,119.383 73.9375,122.049 56.5,112.5C 61.568,111.41 65.9013,109.076 69.5,105.5C 72.5839,106.984 75.5839,106.818 78.5,105C 97,86.5 115.5,68 134,49.5C 135.618,42.2048 132.785,39.0381 125.5,40C 122.964,42.705 120.297,45.205 117.5,47.5C 121.711,34.1101 124.378,20.4435 125.5,6.5 Z"/></g>
<g><path style="opacity:0.992" fill="#f2f1f1" d="M 45.5,116.5 C 52.9708,122.9 61.6375,126.566 71.5,127.5C 71.9175,128.222 72.5842,128.722 73.5,129C 53.4794,139.506 32.1461,145.339 9.5,146.5C 8.20695,145.158 7.37362,143.491 7,141.5C 6.50058,135.843 6.33391,130.176 6.5,124.5C 14.8851,124.244 23.2185,123.41 31.5,122C 36.8546,121.355 41.5213,119.522 45.5,116.5 Z"/></g>
<g><path style="opacity:0.941" fill="#cecece" d="M 159.5,109.5 C 159.667,120.172 159.5,130.839 159,141.5C 156.389,151.112 150.222,156.945 140.5,159C 128.505,159.5 116.505,159.667 104.5,159.5C 107.421,158.806 110.421,157.973 113.5,157C 121.5,150.333 129.5,143.667 137.5,137C 145.457,128.223 152.791,119.056 159.5,109.5 Z"/></g>
</svg>
